Coordinates
version=1
nRows=16
nColumns=40
inDegrees=yes

Units are S.I. units (second, meters, Newtons, ...)
If the header above contains a line with 'inDegrees', this indicates whether rotational values are in degrees (yes) or radians (no).

endheader
time	pelvis_tilt	pelvis_list	pelvis_rotation	pelvis_tx	pelvis_ty	pelvis_tz	hip_flexion_r	hip_adduction_r	hip_rotation_r	knee_angle_r	knee_angle_r_beta	ankle_angle_r	subtalar_angle_r	mtp_angle_r	hip_flexion_l	hip_adduction_l	hip_rotation_l	knee_angle_l	knee_angle_l_beta	ankle_angle_l	subtalar_angle_l	mtp_angle_l	lumbar_extension	lumbar_bending	lumbar_rotation	arm_flex_r	arm_add_r	arm_rot_r	elbow_flex_r	pro_sup_r	wrist_flex_r	wrist_dev_r	arm_flex_l	arm_add_l	arm_rot_l	elbow_flex_l	pro_sup_l	wrist_flex_l	wrist_dev_l
      0.30000000	     -4.81062165	    -13.00456885	     -0.48238341	     -0.18369511	      0.92230647	      0.26026572	     10.39219730	     16.28876500	    -10.16203349	      8.80025752	      0.15359347	     -4.49263891	    -11.81642595	      0.00000000	     23.74923048	    -32.23687227	    -10.68208490	     77.12107443	      1.34601667	    -10.06838497	     -8.53989811	      0.00000000	      0.00000000	      0.00000000	      0.00000000	     43.95733135	    -16.24581792	     43.95733135	     75.19568463	     44.96250088	      0.00000000	      0.00000000	     43.95733135	    -16.24581792	     43.95733135	     75.19568463	     44.96250088	      0.00000000	      0.00000000
      0.30500000	     -4.33362925	    -12.72056614	     -0.29506736	     -0.17691157	      0.92414571	      0.25943011	      9.07374144	     15.92624631	    -10.50359156	      8.23642267	      0.14375269	     -4.22000564	    -10.74318143	      0.00000000	     24.01408027	    -31.62534235	    -10.56685189	     76.83372807	      1.34100153	     -9.15494917	     -8.19850874	      0.00000000	      0.00000000	      0.00000000	      0.00000000	     43.95945989	    -16.24161602	     43.95945989	     75.19439448	     44.96318424	      0.00000000	      0.00000000	     43.95945989	    -16.24161602	     43.95945989	     75.19439448	     44.96318424	      0.00000000	      0.00000000
      0.31000000	     -4.33442340	    -12.42284831	     -0.49858368	     -0.17058485	      0.92513643	      0.25947098	      8.33703235	     15.63832843	    -10.36040001	      7.83937633	      0.13682293	     -3.99376574	    -10.07603559	      0.00000000	     24.71254624	    -31.15727977	    -10.69039035	     76.59091198	      1.33676359	     -8.33834236	     -7.89295855	      0.00000000	      0.00000000	      0.00000000	      0.00000000	     43.96008121	    -16.24039062	     43.96008121	     75.19401906	     44.96338154	      0.00000000	      0.00000000	     43.96008121	    -16.24039062	     43.96008121	     75.19401906	     44.96338154	      0.00000000	      0.00000000
      0.31500000	     -3.76460791	    -12.00997700	     -0.36991747	     -0.16365463	      0.92709751	      0.25868778	      6.92445997	     15.13837231	    -10.64940160	      7.32286992	      0.12780819	     -3.67632827	     -8.97409129	      0.00000000	     24.64627509	    -30.43088421	    -10.84441863	     76.04496280	      1.32723498	     -7.37391121	     -7.40568366	      0.00000000	      0.00000000	      0.00000000	      0.00000000	     43.96203545	    -16.23653906	     43.96203545	     75.19284113	     44.96399659	      0.00000000	      0.00000000	     43.96203545	    -16.23653906	     43.96203545	     75.19284113	     44.96399659	      0.00000000	      0.00000000
      0.32000000	     -3.27548564	    -11.25789554	     -0.53802924	     -0.15709915	      0.92912813	      0.25855477	      5.69212039	     14.29997326	    -10.66107560	      7.03886172	      0.12285131	     -3.21979072	     -7.90723487	      0.00000000	     24.39050309	    -29.43603104	    -11.48003595	     75.31553501	      1.31450406	     -6.69830178	     -7.29704809	      0.00000000	      0.00000000	      0.00000000	      0.00000000	     43.96626160	    -16.22822617	     43.96626160	     75.19031089	     44.96529500	      0.00000000	      0.00000000	     43.96626160	    -16.22822617	     43.96626160	     75.19031089	     44.96529500	      0.00000000	      0.00000000
      0.32500000	     -3.34404846	    -11.00600905	     -0.73878954	     -0.15071105	      0.92975604	      0.25850081	      5.08179588	     14.03772722	    -10.53743256	      6.69551561	      0.11685879	     -3.03259894	     -7.39989169	      0.00000000	     25.10399205	    -29.03185608	    -11.68353603	     74.87910512	      1.30688693	     -5.87328713	     -6.91830331	      0.00000000	      0.00000000	      0.00000000	      0.00000000	     43.96675169	    -16.22726370	     43.96675169	     75.19001905	     44.96544274	      0.00000000	      0.00000000	     43.96675169	    -16.22726370	     43.96675169	     75.19001905	     44.96544274	      0.00000000	      0.00000000
      0.33000000	     -2.57191940	    -10.25323929	     -0.73912174	     -0.14392859	      0.93212977	      0.25797522	      3.51332243	     13.15960440	    -10.64670989	      6.30473565	      0.11003840	     -2.64646822	     -6.26336223	      0.00000000	     24.47566749	    -27.96993522	    -12.29938604	     73.89460568	      1.28970417	     -5.13557996	     -6.53141398	      0.00000000	      0.00000000	      0.00000000	      0.00000000	     43.97012874	    -16.22063957	     43.97012874	     75.18801646	     44.96644537	      0.00000000	      0.00000000	     43.97012874	    -16.22063957	     43.97012874	     75.18801646	     44.96644537	      0.00000000	      0.00000000
      0.33500000	     -2.59112866	     -9.97800308	     -0.91425927	     -0.13758486	      0.93272735	      0.25782421	      2.91144994	     12.84718473	    -10.55280062	      6.04651741	      0.10553164	     -2.44888903	     -5.82516738	      0.00000000	     25.07111744	    -27.51240352	    -12.53962808	     73.27323359	      1.27885918	     -4.35965109	     -6.09955028	      0.00000000	      0.00000000	      0.00000000	      0.00000000	     43.97078492	    -16.21935412	     43.97078492	     75.18762904	     44.96663723	      0.00000000	      0.00000000	     43.97078492	    -16.21935412	     43.97078492	     75.18762904	     44.96663723	      0.00000000	      0.00000000
      0.34000000	     -1.80908487	     -9.17487783	     -0.97424914	     -0.13086049	      0.93495115	      0.25740009	      1.40163015	     11.89883244	    -10.64718795	      5.76652553	      0.10064486	     -2.06896887	     -4.82951955	      0.00000000	     24.34198910	    -26.42567598	    -13.29446671	     72.12903407	      1.25888913	     -3.65638021	     -5.73325691	      0.00000000	      0.00000000	      0.00000000	      0.00000000	     43.97354995	    -16.21394247	     43.97354995	     75.18600178	     44.96743620	      0.00000000	      0.00000000	     43.97354995	    -16.21394247	     43.97354995	     75.18600178	     44.96743620	      0.00000000	      0.00000000
      0.34500000	     -1.86660079	     -9.14886669	     -1.14587998	     -0.12466015	      0.93523853	      0.25729728	      0.96184187	     11.85065843	    -10.64680405	      5.70557324	      0.09958104	     -1.92948014	     -4.71058880	      0.00000000	     25.05122448	    -26.28984934	    -13.48999129	     71.44774161	      1.24699833	     -3.28105675	     -5.61045729	      0.00000000	      0.00000000	      0.00000000	      0.00000000	     43.97371047	    -16.21362874	     43.97371047	     75.18590772	     44.96748193	      0.00000000	      0.00000000	     43.97371047	    -16.21362874	     43.97371047	     75.18590772	     44.96748193	      0.00000000	      0.00000000
      0.35000000	     -1.01574398	     -7.74770489	     -1.47060499	     -0.11803448	      0.93779860	      0.25732212	     -0.57459205	     10.21907219	    -10.41857847	      5.52019446	      0.09634557	     -1.32197341	     -3.49662026	      0.00000000	     23.82913895	    -24.56468506	    -14.78941011	     69.87942122	      1.21962598	     -2.50357450	     -5.14034245	      0.00000000	      0.00000000	      0.00000000	      0.00000000	     43.97834524	    -16.20457979	     43.97834524	     75.18320284	     44.96878166	      0.00000000	      0.00000000	     43.97834524	    -16.20457979	     43.97834524	     75.18320284	     44.96878166	      0.00000000	      0.00000000
      0.35500000	     -0.65019143	     -7.16937009	     -1.62562651	     -0.11162041	      0.93894796	      0.25708131	     -1.52298763	      9.51733782	    -10.37742526	      5.35741156	      0.09350447	     -1.01519091	     -2.90175280	      0.00000000	     23.68957782	    -23.74173208	    -15.37060787	     68.71586097	      1.19931802	     -1.94300723	     -4.74417308	      0.00000000	      0.00000000	      0.00000000	      0.00000000	     43.98178330	    -16.19788621	     43.98178330	     75.18121565	     44.96971311	      0.00000000	      0.00000000	     43.98178330	    -16.19788621	     43.98178330	     75.18121565	     44.96971311	      0.00000000	      0.00000000
      0.36000000	     -0.70830950	     -7.22446188	     -1.73814416	     -0.10546813	      0.93898552	      0.25679621	     -1.92403326	      9.54076578	    -10.39884091	      5.32930696	      0.09301395	     -0.87445977	     -2.83587878	      0.00000000	     24.37840630	    -23.66350134	    -15.51905635	     67.87928227	      1.18471697	     -1.61016974	     -4.57275754	      0.00000000	      0.00000000	      0.00000000	      0.00000000	     43.98194145	    -16.19757872	     43.98194145	     75.18112463	     44.96975537	      0.00000000	      0.00000000	     43.98194145	    -16.19757872	     43.98194145	     75.18112463	     44.96975537	      0.00000000	      0.00000000
      0.36500000	      0.06618780	     -5.94279066	     -2.02053701	     -0.09891142	      0.94102843	      0.25675802	     -3.31154567	      8.02156545	    -10.21152410	      5.16738917	      0.09018795	     -0.38298906	     -1.95058787	      0.00000000	     23.30760038	    -22.02316561	    -16.64870148	     66.13145269	      1.15421159	     -0.93521337	     -4.00073248	      0.00000000	      0.00000000	      0.00000000	      0.00000000	     43.98589044	    -16.18990951	     43.98589044	     75.17886150	     44.97079318	      0.00000000	      0.00000000	     43.98589044	    -16.18990951	     43.98589044	     75.17886150	     44.97079318	      0.00000000	      0.00000000
      0.37000000	     -0.03540918	     -5.80430469	     -2.10501069	     -0.09276617	      0.94093890	      0.25636302	     -3.68346385	      7.82632452	    -10.11558606	      5.07105135	      0.08850654	     -0.22627356	     -1.75390283	      0.00000000	     23.93869515	    -21.65524210	    -16.79034714	     65.09553243	      1.13613137	     -0.43492869	     -3.51338635	      0.00000000	      0.00000000	      0.00000000	      0.00000000	     43.98638346	    -16.18895335	     43.98638346	     75.17858026	     44.97092068	      0.00000000	      0.00000000	     43.98638346	    -16.18895335	     43.98638346	     75.17858026	     44.97092068	      0.00000000	      0.00000000
      0.37500000	     -0.06131489	     -5.81883651	     -2.18751720	     -0.08666473	      0.94084131	      0.25604347	     -4.10712684	      7.80293330	    -10.13086334	      5.03727806	      0.08791709	     -0.03425532	     -1.67920387	      0.00000000	     24.48490126	    -21.49672176	    -16.95648347	     64.02338007	      1.11741878	     -0.10136421	     -3.24272871	      0.00000000	      0.00000000	      0.00000000	      0.00000000	     43.98662087	    -16.18849307	     43.98662087	     75.17844498	     44.97098186	      0.00000000	      0.00000000	     43.98662087	    -16.18849307	     43.98662087	     75.17844498	     44.97098186	      0.00000000	      0.00000000
